# xmcd
#
# Track frame offsets:
#	150
#	13470
#	24885
#	37490
#	48187
#	57157
#	70940
#	79157
#	95232
#	105247
#	120130
#	132250
#	154445
#
# Disc length: 2234
#
# Revision: 3
# Processed by: cddbd v1.5.1PL0 Copyright (c) Steve Scherf et al.
# Submitted via: DiscPlay 4.0.4
# Normalized: r1:TSWAP
#
DISCID=ab08b80d
DTITLE=Various Artist - Happy Holidays, Vol. 25
DYEAR=1900
DGENRE=
TTITLE0=Perry Como - (There's No Place Like) Home For The Holidays
TTITLE1=Julie Andrews with the Orchestra - Deck The Halls
TTITLE2=Sergio Franchi - Oh Little Town OF Bethlehem
TTITLE3=Canadian Brass - O Come , O Come, Emmanuel I Wonder As I Wander
TTITLE4=Ames Brothers - Good King Wencelas
TTITLE5=Florence Henderson - My Favorite Things
TTITLE6=Jim Reeves - Jingle Bells
TTITLE7=Henry Mancini, his Orchestra and Chorus - The Christmas Song
TTITLE8=Chet Atkins - Jolly Old St. Nicholas
TTITLE9=Alabama - Happy Holidays
TTITLE10=Boston Pops Orchestra, Authru Fiedler, Conductor - Sleigh Ride
TTITLE11=Leontyne Price, Soprano - Ave Maria
TTITLE12=Elvis Presley - If Every Day Was Like Christmas
EXTD=
EXTT0=
EXTT1=
EXTT2=
EXTT3=
EXTT4=
EXTT5=
EXTT6=
EXTT7=
EXTT8=
EXTT9=
EXTT10=
EXTT11=
EXTT12=
PLAYORDER=
